<svg width="25" height="25" viewBox="0 0 25 25" fill="none" xmlns="http://www.w3.org/2000/svg">
<path d="M21.375 15.8437L19.5 13.9583V9.31246C19.5249 7.58728 18.9248 5.91133 17.8105 4.59406C16.6962 3.2768 15.1429 2.40719 13.4375 2.14579C12.4477 2.01545 11.4415 2.09768 10.486 2.38702C9.53053 2.67635 8.64775 3.16613 7.89655 3.82367C7.14536 4.48121 6.54303 5.2914 6.12976 6.20016C5.7165 7.10893 5.50179 8.09539 5.49996 9.09371V13.9583L3.62496 15.8437C3.38945 16.0832 3.22974 16.3867 3.1658 16.7164C3.10186 17.0461 3.13652 17.3874 3.26546 17.6975C3.3944 18.0076 3.61189 18.2729 3.89075 18.46C4.1696 18.6472 4.49745 18.7481 4.8333 18.75H8.3333V19.1041C8.38195 20.1616 8.84783 21.1567 9.62884 21.8713C10.4099 22.586 11.4423 22.9619 12.5 22.9166C13.5576 22.9619 14.5901 22.586 15.3711 21.8713C16.1521 21.1567 16.618 20.1616 16.6666 19.1041V18.75H20.1666C20.5025 18.7481 20.8303 18.6472 21.1092 18.46C21.388 18.2729 21.6055 18.0076 21.7345 17.6975C21.8634 17.3874 21.8981 17.0461 21.8341 16.7164C21.7702 16.3867 21.6105 16.0832 21.375 15.8437ZM14.5833 19.1041C14.5255 19.6052 14.2767 20.0646 13.8886 20.3867C13.5005 20.7088 13.0031 20.8688 12.5 20.8333C11.9969 20.8688 11.4994 20.7088 11.1113 20.3867C10.7233 20.0646 10.4744 19.6052 10.4166 19.1041V18.75H14.5833V19.1041Z" fill="#231F20"/>
</svg>
