<svg width="25" height="27" viewBox="0 0 25 27" fill="none" xmlns="http://www.w3.org/2000/svg">
<g id="&#240;&#159;&#166;&#134; icon &#34;bell&#34;">
<path id="Vector" d="M21.3749 17.0282L19.4999 15.0247V10.0879C19.5249 8.25462 18.9248 6.4737 17.8105 5.07393C16.6962 3.67416 15.1429 2.75008 13.4374 2.47231C12.4477 2.3338 11.4415 2.42119 10.486 2.72865C9.5305 3.0361 8.64772 3.55656 7.89652 4.25528C7.14533 4.95401 6.543 5.81494 6.12973 6.78063C5.71646 7.74632 5.50176 8.79456 5.49993 9.85541V15.0247L3.62493 17.0282C3.38942 17.2826 3.22971 17.6052 3.16577 17.9556C3.10183 18.3059 3.13649 18.6686 3.26543 18.9981C3.39437 19.3276 3.61186 19.6095 3.89072 19.8084C4.16957 20.0073 4.49742 20.1145 4.83327 20.1165H8.33327V20.4928C8.38192 21.6166 8.8478 22.674 9.62881 23.4334C10.4098 24.1928 11.4423 24.5922 12.4999 24.5441C13.5576 24.5922 14.59 24.1928 15.3711 23.4334C16.1521 22.674 16.6179 21.6166 16.6666 20.4928V20.1165H20.1666C20.5025 20.1145 20.8303 20.0073 21.1091 19.8084C21.388 19.6095 21.6055 19.3276 21.7344 18.9981C21.8634 18.6686 21.898 18.3059 21.8341 17.9556C21.7702 17.6052 21.6104 17.2826 21.3749 17.0282ZM14.5833 20.4928C14.5255 21.0253 14.2766 21.5135 13.8885 21.8558C13.5005 22.1981 13.003 22.368 12.4999 22.3303C11.9968 22.368 11.4994 22.1981 11.1113 21.8558C10.7232 21.5135 10.4744 21.0253 10.4166 20.4928V20.1165H14.5833V20.4928Z" fill="#231F20"/>
</g>
</svg>
